<svg width="50" height="50" viewBox="0 0 50 50" fill="none" xmlns="http://www.w3.org/2000/svg">
<rect width="50" height="50" fill="white"/>
<path d="M48 23.7825C48 20.0153 44.8526 16.9372 40.8821 16.8453C39.7684 12.8943 35.9432 10 31.44 10C28.8737 10 26.5011 10.9648 24.7579 12.4809C22.9663 11.3783 20.8358 10.7351 18.56 10.7351C15.6547 10.7351 12.9916 11.7917 10.9579 13.4916C10.4253 13.3538 9.89262 13.3078 9.31157 13.3078C5.2442 13.3078 2 16.4318 2 20.245C2 22.3124 2.96842 24.1501 4.42105 25.3905C3.54947 26.5391 3.06527 27.9173 3.06527 29.4334C3.06527 33.2925 6.35789 36.3706 10.3768 36.3706C11.6358 36.3706 12.7979 36.095 13.8147 35.5437C15.5579 38.2083 18.6568 40 22.1916 40C25.3874 40 28.1958 38.5758 29.9874 36.3247C31.2947 38.0704 33.4737 39.219 35.9431 39.219C40.0105 39.219 43.2547 36.095 43.2547 32.2818C43.2547 31.5927 43.1579 30.9495 42.9642 30.3063C45.8695 29.4793 48 26.8606 48 23.7825ZM16.6716 27.1363C15.1705 27.1363 14.0084 25.9877 14.0084 24.6095C14.0084 23.1853 15.2189 22.0827 16.6716 22.0827C18.1726 22.0827 19.3347 23.2312 19.3347 24.6095C19.3347 25.9877 18.1242 27.1363 16.6716 27.1363ZM25 27.1363C23.4989 27.1363 22.3368 25.9877 22.3368 24.6095C22.3368 23.1853 23.5474 22.0827 25 22.0827C26.5011 22.0827 27.6632 23.2312 27.6632 24.6095C27.6632 25.9877 26.5011 27.1363 25 27.1363ZM33.3284 27.1363C31.8274 27.1363 30.6653 25.9877 30.6653 24.6095C30.6653 23.1853 31.8758 22.0827 33.3284 22.0827C34.8295 22.0827 35.9916 23.2312 35.9916 24.6095C36.04 25.9877 34.8295 27.1363 33.3284 27.1363Z" fill="black"/>
</svg>
