<svg width="191" height="42" viewBox="0 0 191 42" fill="none" xmlns="http://www.w3.org/2000/svg">
<path d="M40 11.9449C40 8.67994 37.2632 6.01226 33.8105 5.93263C32.8421 2.50843 29.5158 0 25.6 0C23.3684 0 21.3053 0.836151 19.7895 2.15009C18.2316 1.1945 16.379 0.637074 14.4 0.637074C11.8737 0.637074 9.55789 1.55285 7.78947 3.02605C7.32632 2.9066 6.86315 2.86677 6.35788 2.86677C2.82104 2.86677 0 5.57427 0 8.87902C0 10.6707 0.842105 12.2634 2.10526 13.3384C1.34737 14.3338 0.926321 15.5283 0.926321 16.8423C0.926321 20.1868 3.78947 22.8545 7.28421 22.8545C8.37894 22.8545 9.38948 22.6156 10.2737 22.1378C11.7895 24.4472 14.4842 26 17.5579 26C20.3368 26 22.7789 24.7657 24.3368 22.8147C25.4737 24.3277 27.3684 25.3231 29.5158 25.3231C33.0526 25.3231 35.8737 22.6156 35.8737 19.3109C35.8737 18.7136 35.7895 18.1562 35.621 17.5988C38.1474 16.8821 40 14.6126 40 11.9449ZM12.7579 14.8515C11.4526 14.8515 10.4421 13.856 10.4421 12.6616C10.4421 11.4273 11.4947 10.4717 12.7579 10.4717C14.0632 10.4717 15.0737 11.4671 15.0737 12.6616C15.0737 13.856 14.021 14.8515 12.7579 14.8515ZM20 14.8515C18.6947 14.8515 17.6842 13.856 17.6842 12.6616C17.6842 11.4273 18.7368 10.4717 20 10.4717C21.3053 10.4717 22.3158 11.4671 22.3158 12.6616C22.3158 13.856 21.3053 14.8515 20 14.8515ZM27.2421 14.8515C25.9368 14.8515 24.9263 13.856 24.9263 12.6616C24.9263 11.4273 25.979 10.4717 27.2421 10.4717C28.5474 10.4717 29.5579 11.4671 29.5579 12.6616C29.6 13.856 28.5474 14.8515 27.2421 14.8515Z" fill="black"/>
<path d="M57.832 9.536C57.32 9.12 56.808 8.816 56.296 8.624C55.784 8.416 55.288 8.312 54.808 8.312C54.2 8.312 53.704 8.456 53.32 8.744C52.936 9.032 52.744 9.408 52.744 9.872C52.744 10.192 52.84 10.456 53.032 10.664C53.224 10.872 53.472 11.056 53.776 11.216C54.096 11.36 54.448 11.488 54.832 11.6C55.232 11.712 55.624 11.832 56.008 11.96C57.544 12.472 58.664 13.16 59.368 14.024C60.088 14.872 60.448 15.984 60.448 17.36C60.448 18.288 60.288 19.128 59.968 19.88C59.664 20.632 59.208 21.28 58.6 21.824C58.008 22.352 57.272 22.76 56.392 23.048C55.528 23.352 54.544 23.504 53.44 23.504C51.152 23.504 49.032 22.824 47.08 21.464L49.096 17.672C49.8 18.296 50.496 18.76 51.184 19.064C51.872 19.368 52.552 19.52 53.224 19.52C53.992 19.52 54.56 19.344 54.928 18.992C55.312 18.64 55.504 18.24 55.504 17.792C55.504 17.52 55.456 17.288 55.36 17.096C55.264 16.888 55.104 16.704 54.88 16.544C54.656 16.368 54.36 16.208 53.992 16.064C53.64 15.92 53.208 15.76 52.696 15.584C52.088 15.392 51.488 15.184 50.896 14.96C50.32 14.72 49.8 14.408 49.336 14.024C48.888 13.64 48.52 13.16 48.232 12.584C47.96 11.992 47.824 11.248 47.824 10.352C47.824 9.456 47.968 8.648 48.256 7.928C48.56 7.192 48.976 6.568 49.504 6.056C50.048 5.528 50.704 5.12 51.472 4.832C52.256 4.544 53.128 4.4 54.088 4.4C54.984 4.4 55.92 4.528 56.896 4.784C57.872 5.024 58.808 5.384 59.704 5.864L57.832 9.536ZM68.1156 4.904V23H63.4116V4.904H68.1156ZM78.76 8.888V23H74.056V8.888H70.192V4.904H82.624V8.888H78.76ZM95.0123 8.888H89.4203V11.912H94.7003V15.896H89.4203V19.016H95.0123V23H84.7163V4.904H95.0123V8.888ZM106.56 23V4.904H111.264L119.952 15.968V4.904H124.632V23H119.952L111.264 11.936V23H106.56ZM138.314 16.28L136.202 10.256L134.09 16.28H138.314ZM139.562 19.856H132.842L131.762 23H126.746L133.634 4.904H138.77L145.658 23H140.642L139.562 19.856ZM146.9 23L149.972 4.904H154.628L158.252 14.552L161.852 4.904H166.508L169.58 23H164.9L163.34 12.584L159.068 23H157.196L153.14 12.584L151.58 23H146.9ZM182.856 8.888H177.264V11.912H182.544V15.896H177.264V19.016H182.856V23H172.56V4.904H182.856V8.888Z" fill="black"/>
<path d="M4.88232 36.9858C4.88232 36.6421 4.76058 36.3771 4.51709 36.1909C4.27718 36.0047 3.84212 35.8167 3.21191 35.627C2.58171 35.4372 2.0804 35.2259 1.70801 34.9932C0.995443 34.5456 0.63916 33.9619 0.63916 33.2422C0.63916 32.612 0.895182 32.0928 1.40723 31.6846C1.92285 31.2764 2.59066 31.0723 3.41064 31.0723C3.95492 31.0723 4.4401 31.1725 4.86621 31.373C5.29232 31.5736 5.62712 31.86 5.87061 32.2324C6.1141 32.6012 6.23584 33.0112 6.23584 33.4624H4.88232C4.88232 33.0542 4.75342 32.7355 4.49561 32.5063C4.24137 32.2736 3.87614 32.1572 3.3999 32.1572C2.95589 32.1572 2.61035 32.2521 2.36328 32.4419C2.11979 32.6317 1.99805 32.8966 1.99805 33.2368C1.99805 33.5233 2.13053 33.7632 2.39551 33.9565C2.66048 34.1463 3.09733 34.3325 3.70605 34.5151C4.31478 34.6942 4.80355 34.9001 5.17236 35.1328C5.54118 35.362 5.81152 35.627 5.9834 35.9277C6.15527 36.2249 6.24121 36.5741 6.24121 36.9751C6.24121 37.6268 5.99056 38.146 5.48926 38.5327C4.99154 38.9159 4.31478 39.1074 3.45898 39.1074C2.89323 39.1074 2.37223 39.0036 1.896 38.7959C1.42334 38.5846 1.05452 38.2946 0.789551 37.9258C0.528158 37.557 0.397461 37.1273 0.397461 36.6367H1.75635C1.75635 37.0807 1.90316 37.4245 2.19678 37.668C2.4904 37.9115 2.91113 38.0332 3.45898 38.0332C3.93164 38.0332 4.28613 37.9383 4.52246 37.7485C4.76237 37.5552 4.88232 37.3009 4.88232 36.9858ZM8.7508 39H7.44562V33.1885H8.7508V39ZM7.36506 31.6792C7.36506 31.4787 7.42772 31.3122 7.55305 31.1797C7.68195 31.0472 7.86457 30.981 8.1009 30.981C8.33723 30.981 8.51984 31.0472 8.64875 31.1797C8.77766 31.3122 8.84211 31.4787 8.84211 31.6792C8.84211 31.8761 8.77766 32.0409 8.64875 32.1733C8.51984 32.3022 8.33723 32.3667 8.1009 32.3667C7.86457 32.3667 7.68195 32.3022 7.55305 32.1733C7.42772 32.0409 7.36506 31.8761 7.36506 31.6792ZM11.8673 31.7759V33.1885H12.8932V34.1553H11.8673V37.3994C11.8673 37.6214 11.9103 37.7826 11.9962 37.8828C12.0857 37.9795 12.2433 38.0278 12.4689 38.0278C12.6193 38.0278 12.7715 38.0099 12.9254 37.9741V38.9839C12.6282 39.0662 12.3418 39.1074 12.0661 39.1074C11.0635 39.1074 10.5621 38.5542 10.5621 37.4478V34.1553H9.60609V33.1885H10.5621V31.7759H11.8673ZM16.5092 39.1074C15.6821 39.1074 15.0107 38.8478 14.4951 38.3286C13.983 37.8058 13.727 37.1112 13.727 36.2446V36.0835C13.727 35.5034 13.838 34.986 14.06 34.5312C14.2856 34.0729 14.6007 33.7166 15.0053 33.4624C15.41 33.2082 15.8611 33.0811 16.3588 33.0811C17.1502 33.0811 17.7607 33.3335 18.1904 33.8384C18.6237 34.3433 18.8403 35.0576 18.8403 35.9814V36.5078H15.0429C15.0823 36.9876 15.2417 37.3672 15.521 37.6465C15.8038 37.9258 16.1583 38.0654 16.5844 38.0654C17.1824 38.0654 17.6694 37.8237 18.0454 37.3403L18.749 38.0117C18.5162 38.359 18.2047 38.6294 17.8144 38.8228C17.4277 39.0125 16.9926 39.1074 16.5092 39.1074ZM16.3535 34.1284C15.9954 34.1284 15.7054 34.2537 15.4834 34.5044C15.2649 34.755 15.1253 35.1042 15.0644 35.5518H17.5512V35.4551C17.5226 35.0182 17.4062 34.6888 17.2021 34.4668C16.998 34.2412 16.7151 34.1284 16.3535 34.1284ZM25.9649 37.4209C25.9649 37.1882 25.8683 37.0109 25.6749 36.8892C25.4851 36.7674 25.1682 36.66 24.7242 36.5669C24.2802 36.4738 23.9096 36.3556 23.6124 36.2124C22.9607 35.8973 22.6349 35.4408 22.6349 34.8428C22.6349 34.3415 22.8461 33.9225 23.2687 33.5859C23.6912 33.2493 24.2283 33.0811 24.88 33.0811C25.5746 33.0811 26.135 33.2529 26.5611 33.5967C26.9908 33.9404 27.2057 34.3862 27.2057 34.9341H25.9005C25.9005 34.6834 25.8074 34.4757 25.6212 34.311C25.435 34.1427 25.1879 34.0586 24.88 34.0586C24.5935 34.0586 24.359 34.1248 24.1764 34.2573C23.9973 34.3898 23.9078 34.5671 23.9078 34.7891C23.9078 34.9896 23.992 35.1453 24.1603 35.2563C24.3285 35.3674 24.6687 35.4801 25.1808 35.5947C25.6928 35.7057 26.0938 35.84 26.3839 35.9976C26.6775 36.1515 26.8941 36.3377 27.0338 36.5562C27.177 36.7746 27.2486 37.0396 27.2486 37.3511C27.2486 37.8739 27.032 38.2982 26.5987 38.624C26.1655 38.9463 25.5979 39.1074 24.8961 39.1074C24.4199 39.1074 23.9955 39.0215 23.6231 38.8496C23.2507 38.6777 22.9607 38.4414 22.753 38.1406C22.5453 37.8398 22.4415 37.5158 22.4415 37.1685H23.7091C23.727 37.4764 23.8434 37.7145 24.0582 37.8828C24.273 38.0475 24.5577 38.1299 24.9122 38.1299C25.256 38.1299 25.5173 38.0654 25.6964 37.9365C25.8754 37.804 25.9649 37.6322 25.9649 37.4209ZM30.0805 31.7759V33.1885H31.1064V34.1553H30.0805V37.3994C30.0805 37.6214 30.1235 37.7826 30.2094 37.8828C30.2989 37.9795 30.4565 38.0278 30.6821 38.0278C30.8324 38.0278 30.9846 38.0099 31.1386 37.9741V38.9839C30.8414 39.0662 30.5549 39.1074 30.2792 39.1074C29.2766 39.1074 28.7753 38.5542 28.7753 37.4478V34.1553H27.8193V33.1885H28.7753V31.7759H30.0805ZM35.2058 34.3809C35.0339 34.3522 34.8567 34.3379 34.6741 34.3379C34.0761 34.3379 33.6732 34.5671 33.4656 35.0254V39H32.1604V33.1885H33.4065L33.4387 33.8384C33.7538 33.3335 34.1907 33.0811 34.7493 33.0811C34.9355 33.0811 35.0894 33.1061 35.2112 33.1562L35.2058 34.3809ZM39.3965 39C39.3392 38.889 39.2891 38.7082 39.2462 38.4575C38.8308 38.8908 38.3223 39.1074 37.7208 39.1074C37.1371 39.1074 36.6609 38.9409 36.292 38.6079C35.9232 38.2749 35.7388 37.8631 35.7388 37.3726C35.7388 36.7531 35.968 36.2786 36.4263 35.9492C36.8882 35.6162 37.5471 35.4497 38.4029 35.4497H39.2032V35.0684C39.2032 34.7676 39.119 34.5277 38.9507 34.3486C38.7824 34.166 38.5264 34.0747 38.1827 34.0747C37.8855 34.0747 37.642 34.1499 37.4522 34.3003C37.2624 34.4471 37.1675 34.6351 37.1675 34.8643H35.8624C35.8624 34.5456 35.968 34.2484 36.1793 33.9727C36.3905 33.6934 36.677 33.4749 37.0386 33.3174C37.4039 33.1598 37.8103 33.0811 38.2579 33.0811C38.9382 33.0811 39.4807 33.2529 39.8853 33.5967C40.2899 33.9368 40.4976 34.4167 40.5084 35.0361V37.6572C40.5084 38.18 40.5818 38.5972 40.7286 38.9087V39H39.3965ZM37.9625 38.0601C38.2203 38.0601 38.462 37.9974 38.6876 37.8721C38.9167 37.7467 39.0886 37.5785 39.2032 37.3672V36.2715H38.4996C38.0162 36.2715 37.6527 36.3556 37.4092 36.5239C37.1657 36.6922 37.044 36.9303 37.044 37.2383C37.044 37.4889 37.1264 37.6895 37.2911 37.8398C37.4594 37.9867 37.6832 38.0601 37.9625 38.0601ZM47.0194 36.1533C47.0194 37.0521 46.8153 37.77 46.4071 38.3071C45.9989 38.8407 45.4511 39.1074 44.7636 39.1074C44.1262 39.1074 43.6159 38.8979 43.2328 38.479V41.2344H41.9276V33.1885H43.1307L43.1845 33.7793C43.5676 33.3138 44.0886 33.0811 44.7474 33.0811C45.4564 33.0811 46.0114 33.346 46.4125 33.876C46.8171 34.4023 47.0194 35.1346 47.0194 36.0728V36.1533ZM45.7196 36.0405C45.7196 35.4604 45.6032 35.0003 45.3705 34.6602C45.1413 34.32 44.8119 34.1499 44.3822 34.1499C43.8487 34.1499 43.4655 34.3701 43.2328 34.8105V37.3887C43.4691 37.8398 43.8558 38.0654 44.3929 38.0654C44.8083 38.0654 45.1324 37.8989 45.3651 37.5659C45.6014 37.2293 45.7196 36.7209 45.7196 36.0405ZM49.572 39H48.2668V30.75H49.572V39ZM52.4414 39H51.1362V33.1885H52.4414V39ZM51.0557 31.6792C51.0557 31.4787 51.1183 31.3122 51.2437 31.1797C51.3726 31.0472 51.5552 30.981 51.7915 30.981C52.0279 30.981 52.2105 31.0472 52.3394 31.1797C52.4683 31.3122 52.5327 31.4787 52.5327 31.6792C52.5327 31.8761 52.4683 32.0409 52.3394 32.1733C52.2105 32.3022 52.0279 32.3667 51.7915 32.3667C51.5552 32.3667 51.3726 32.3022 51.2437 32.1733C51.1183 32.0409 51.0557 31.8761 51.0557 31.6792ZM55.1336 33.1885L55.1712 33.8599C55.6009 33.3407 56.1649 33.0811 56.8631 33.0811C58.0734 33.0811 58.6893 33.7739 58.7108 35.1597V39H57.4056V35.2349C57.4056 34.866 57.325 34.5939 57.1639 34.4185C57.0064 34.2394 56.7468 34.1499 56.3851 34.1499C55.8587 34.1499 55.4666 34.388 55.2088 34.8643V39H53.9037V33.1885H55.1336ZM62.6598 39.1074C61.8327 39.1074 61.1613 38.8478 60.6457 38.3286C60.1336 37.8058 59.8776 37.1112 59.8776 36.2446V36.0835C59.8776 35.5034 59.9886 34.986 60.2106 34.5312C60.4362 34.0729 60.7513 33.7166 61.1559 33.4624C61.5605 33.2082 62.0117 33.0811 62.5094 33.0811C63.3008 33.0811 63.9113 33.3335 64.341 33.8384C64.7742 34.3433 64.9909 35.0576 64.9909 35.9814V36.5078H61.1935C61.2329 36.9876 61.3922 37.3672 61.6715 37.6465C61.9544 37.9258 62.3089 38.0654 62.735 38.0654C63.333 38.0654 63.82 37.8237 64.196 37.3403L64.8996 38.0117C64.6668 38.359 64.3553 38.6294 63.965 38.8228C63.5783 39.0125 63.1432 39.1074 62.6598 39.1074ZM62.5041 34.1284C62.146 34.1284 61.856 34.2537 61.6339 34.5044C61.4155 34.755 61.2759 35.1042 61.215 35.5518H63.7018V35.4551C63.6732 35.0182 63.5568 34.6888 63.3527 34.4668C63.1486 34.2412 62.8657 34.1284 62.5041 34.1284ZM71.4173 39.1074C70.5901 39.1074 69.9187 38.8478 69.4031 38.3286C68.8911 37.8058 68.6351 37.1112 68.6351 36.2446V36.0835C68.6351 35.5034 68.7461 34.986 68.9681 34.5312C69.1936 34.0729 69.5088 33.7166 69.9134 33.4624C70.318 33.2082 70.7692 33.0811 71.2669 33.0811C72.0582 33.0811 72.6687 33.3335 73.0984 33.8384C73.5317 34.3433 73.7483 35.0576 73.7483 35.9814V36.5078H69.951C69.9904 36.9876 70.1497 37.3672 70.429 37.6465C70.7119 37.9258 71.0664 38.0654 71.4925 38.0654C72.0905 38.0654 72.5774 37.8237 72.9534 37.3403L73.657 38.0117C73.4243 38.359 73.1128 38.6294 72.7225 38.8228C72.3357 39.0125 71.9007 39.1074 71.4173 39.1074ZM71.2615 34.1284C70.9034 34.1284 70.6134 34.2537 70.3914 34.5044C70.173 34.755 70.0333 35.1042 69.9725 35.5518H72.4593V35.4551C72.4306 35.0182 72.3143 34.6888 72.1102 34.4668C71.9061 34.2412 71.6232 34.1284 71.2615 34.1284ZM76.9078 35.1006L78.0143 33.1885H79.4645L77.6866 36.0513L79.5236 39H78.0841L76.9239 37.0127L75.7692 39H74.319L76.1559 36.0513L74.3834 33.1885H75.8229L76.9078 35.1006ZM85.4975 36.1533C85.4975 37.0521 85.2934 37.77 84.8852 38.3071C84.477 38.8407 83.9291 39.1074 83.2416 39.1074C82.6043 39.1074 82.094 38.8979 81.7109 38.479V41.2344H80.4057V33.1885H81.6088L81.6625 33.7793C82.0457 33.3138 82.5667 33.0811 83.2255 33.0811C83.9345 33.0811 84.4895 33.346 84.8906 33.876C85.2952 34.4023 85.4975 35.1346 85.4975 36.0728V36.1533ZM84.1977 36.0405C84.1977 35.4604 84.0813 35.0003 83.8486 34.6602C83.6194 34.32 83.29 34.1499 82.8603 34.1499C82.3268 34.1499 81.9436 34.3701 81.7109 34.8105V37.3887C81.9472 37.8398 82.3339 38.0654 82.871 38.0654C83.2864 38.0654 83.6105 37.8989 83.8432 37.5659C84.0795 37.2293 84.1977 36.7209 84.1977 36.0405ZM88.0501 39H86.7449V30.75H88.0501V39ZM93.0035 39C92.9462 38.889 92.8961 38.7082 92.8531 38.4575C92.4377 38.8908 91.9293 39.1074 91.3277 39.1074C90.7441 39.1074 90.2678 38.9409 89.899 38.6079C89.5302 38.2749 89.3458 37.8631 89.3458 37.3726C89.3458 36.7531 89.5749 36.2786 90.0333 35.9492C90.4952 35.6162 91.154 35.4497 92.0098 35.4497H92.8101V35.0684C92.8101 34.7676 92.726 34.5277 92.5577 34.3486C92.3894 34.166 92.1334 34.0747 91.7896 34.0747C91.4924 34.0747 91.2489 34.1499 91.0592 34.3003C90.8694 34.4471 90.7745 34.6351 90.7745 34.8643H89.4693C89.4693 34.5456 89.5749 34.2484 89.7862 33.9727C89.9975 33.6934 90.2839 33.4749 90.6456 33.3174C91.0108 33.1598 91.4172 33.0811 91.8648 33.0811C92.5452 33.0811 93.0876 33.2529 93.4923 33.5967C93.8969 33.9368 94.1046 34.4167 94.1153 35.0361V37.6572C94.1153 38.18 94.1887 38.5972 94.3355 38.9087V39H93.0035ZM91.5694 38.0601C91.8272 38.0601 92.0689 37.9974 92.2945 37.8721C92.5237 37.7467 92.6956 37.5785 92.8101 37.3672V36.2715H92.1065C91.6231 36.2715 91.2597 36.3556 91.0162 36.5239C90.7727 36.6922 90.651 36.9303 90.651 37.2383C90.651 37.4889 90.7333 37.6895 90.898 37.8398C91.0663 37.9867 91.2901 38.0601 91.5694 38.0601ZM96.9257 39H95.6205V33.1885H96.9257V39ZM95.5399 31.6792C95.5399 31.4787 95.6026 31.3122 95.7279 31.1797C95.8568 31.0472 96.0395 30.981 96.2758 30.981C96.5121 30.981 96.6947 31.0472 96.8236 31.1797C96.9525 31.3122 97.017 31.4787 97.017 31.6792C97.017 31.8761 96.9525 32.0409 96.8236 32.1733C96.6947 32.3022 96.5121 32.3667 96.2758 32.3667C96.0395 32.3667 95.8568 32.3022 95.7279 32.1733C95.6026 32.0409 95.5399 31.8761 95.5399 31.6792ZM99.6179 33.1885L99.6555 33.8599C100.085 33.3407 100.649 33.0811 101.347 33.0811C102.558 33.0811 103.174 33.7739 103.195 35.1597V39H101.89V35.2349C101.89 34.866 101.809 34.5939 101.648 34.4185C101.491 34.2394 101.231 34.1499 100.869 34.1499C100.343 34.1499 99.9509 34.388 99.6931 34.8643V39H98.3879V33.1885H99.6179ZM105.973 39H104.668V33.1885H105.973V39ZM104.587 31.6792C104.587 31.4787 104.65 31.3122 104.775 31.1797C104.904 31.0472 105.087 30.981 105.323 30.981C105.56 30.981 105.742 31.0472 105.871 31.1797C106 31.3122 106.064 31.4787 106.064 31.6792C106.064 31.8761 106 32.0409 105.871 32.1733C105.742 32.3022 105.56 32.3667 105.323 32.3667C105.087 32.3667 104.904 32.3022 104.775 32.1733C104.65 32.0409 104.587 31.8761 104.587 31.6792ZM108.665 33.1885L108.703 33.8599C109.133 33.3407 109.697 33.0811 110.395 33.0811C111.605 33.0811 112.221 33.7739 112.243 35.1597V39H110.937V35.2349C110.937 34.866 110.857 34.5939 110.696 34.4185C110.538 34.2394 110.279 34.1499 109.917 34.1499C109.39 34.1499 108.998 34.388 108.741 34.8643V39H107.435V33.1885H108.665ZM113.404 36.0513C113.404 35.1489 113.615 34.4292 114.038 33.8921C114.464 33.3514 115.028 33.0811 115.73 33.0811C116.392 33.0811 116.913 33.312 117.293 33.7739L117.352 33.1885H118.528V38.8228C118.528 39.5854 118.29 40.187 117.814 40.6274C117.341 41.0679 116.702 41.2881 115.896 41.2881C115.47 41.2881 115.053 41.1986 114.645 41.0195C114.24 40.8441 113.932 40.6131 113.721 40.3267L114.339 39.5425C114.74 40.0187 115.234 40.2568 115.821 40.2568C116.254 40.2568 116.596 40.1387 116.847 39.9023C117.098 39.6696 117.223 39.3258 117.223 38.8711V38.479C116.847 38.8979 116.346 39.1074 115.719 39.1074C115.039 39.1074 114.482 38.8371 114.049 38.2964C113.619 37.7557 113.404 37.0073 113.404 36.0513ZM114.704 36.1641C114.704 36.7477 114.822 37.2078 115.058 37.5444C115.298 37.8774 115.629 38.0439 116.052 38.0439C116.578 38.0439 116.969 37.8184 117.223 37.3672V34.8105C116.976 34.3701 116.589 34.1499 116.063 34.1499C115.633 34.1499 115.298 34.32 115.058 34.6602C114.822 35.0003 114.704 35.5016 114.704 36.1641ZM127.828 37.2007L128.752 33.1885H130.025L128.44 39H127.366L126.12 35.0093L124.895 39H123.821L122.231 33.1885H123.504L124.444 37.1577L125.637 33.1885H126.619L127.828 37.2007ZM132.239 33.8223C132.665 33.3281 133.204 33.0811 133.856 33.0811C135.095 33.0811 135.723 33.7882 135.741 35.2026V39H134.436V35.251C134.436 34.8499 134.348 34.5671 134.173 34.4023C134.001 34.234 133.746 34.1499 133.41 34.1499C132.887 34.1499 132.497 34.3826 132.239 34.8481V39H130.934V30.75H132.239V33.8223ZM140.592 39C140.535 38.889 140.485 38.7082 140.442 38.4575C140.026 38.8908 139.518 39.1074 138.916 39.1074C138.333 39.1074 137.857 38.9409 137.488 38.6079C137.119 38.2749 136.935 37.8631 136.935 37.3726C136.935 36.7531 137.164 36.2786 137.622 35.9492C138.084 35.6162 138.743 35.4497 139.599 35.4497H140.399V35.0684C140.399 34.7676 140.315 34.5277 140.146 34.3486C139.978 34.166 139.722 34.0747 139.378 34.0747C139.081 34.0747 138.838 34.1499 138.648 34.3003C138.458 34.4471 138.363 34.6351 138.363 34.8643H137.058C137.058 34.5456 137.164 34.2484 137.375 33.9727C137.586 33.6934 137.873 33.4749 138.234 33.3174C138.6 33.1598 139.006 33.0811 139.454 33.0811C140.134 33.0811 140.676 33.2529 141.081 33.5967C141.486 33.9368 141.693 34.4167 141.704 35.0361V37.6572C141.704 38.18 141.777 38.5972 141.924 38.9087V39H140.592ZM139.158 38.0601C139.416 38.0601 139.658 37.9974 139.883 37.8721C140.112 37.7467 140.284 37.5785 140.399 37.3672V36.2715H139.695C139.212 36.2715 138.848 36.3556 138.605 36.5239C138.361 36.6922 138.24 36.9303 138.24 37.2383C138.24 37.4889 138.322 37.6895 138.487 37.8398C138.655 37.9867 138.879 38.0601 139.158 38.0601ZM144.762 31.7759V33.1885H145.787V34.1553H144.762V37.3994C144.762 37.6214 144.804 37.7826 144.89 37.8828C144.98 37.9795 145.137 38.0278 145.363 38.0278C145.513 38.0278 145.666 38.0099 145.82 37.9741V38.9839C145.522 39.0662 145.236 39.1074 144.96 39.1074C143.958 39.1074 143.456 38.5542 143.456 37.4478V34.1553H142.5V33.1885H143.456V31.7759H144.762ZM151.671 37.1309L152.853 33.1885H154.244L151.934 39.8809C151.58 40.8584 150.978 41.3472 150.13 41.3472C149.94 41.3472 149.731 41.3149 149.501 41.2505V40.2407L149.748 40.2568C150.078 40.2568 150.325 40.196 150.49 40.0742C150.658 39.9561 150.79 39.7555 150.887 39.4727L151.075 38.9731L149.034 33.1885H150.441L151.671 37.1309ZM154.723 36.0405C154.723 35.4712 154.836 34.9591 155.062 34.5044C155.287 34.0461 155.604 33.6951 156.012 33.4517C156.421 33.2046 156.89 33.0811 157.42 33.0811C158.204 33.0811 158.839 33.3335 159.326 33.8384C159.817 34.3433 160.082 35.0129 160.121 35.8472L160.127 36.1533C160.127 36.7262 160.016 37.2383 159.794 37.6895C159.575 38.1406 159.26 38.4897 158.848 38.7368C158.44 38.9839 157.968 39.1074 157.43 39.1074C156.61 39.1074 155.953 38.8353 155.459 38.291C154.969 37.7432 154.723 37.0145 154.723 36.105V36.0405ZM156.029 36.1533C156.029 36.7513 156.152 37.2204 156.399 37.5605C156.646 37.8971 156.99 38.0654 157.43 38.0654C157.871 38.0654 158.213 37.8936 158.456 37.5498C158.703 37.2061 158.827 36.703 158.827 36.0405C158.827 35.4533 158.7 34.9878 158.446 34.644C158.195 34.3003 157.853 34.1284 157.42 34.1284C156.994 34.1284 156.655 34.2985 156.405 34.6387C156.154 34.9753 156.029 35.4801 156.029 36.1533ZM164.806 38.4307C164.423 38.8818 163.879 39.1074 163.173 39.1074C162.543 39.1074 162.065 38.923 161.739 38.5542C161.417 38.1854 161.256 37.6519 161.256 36.9536V33.1885H162.561V36.9375C162.561 37.6751 162.867 38.0439 163.48 38.0439C164.113 38.0439 164.541 37.8166 164.763 37.3618V33.1885H166.068V39H164.838L164.806 38.4307ZM170.003 36.0513C170.003 35.1561 170.21 34.4382 170.626 33.8975C171.041 33.3532 171.598 33.0811 172.296 33.0811C172.912 33.0811 173.41 33.2959 173.789 33.7256V30.75H175.094V39H173.913L173.848 38.3984C173.458 38.8711 172.937 39.1074 172.285 39.1074C171.605 39.1074 171.054 38.8335 170.631 38.2856C170.212 37.7378 170.003 36.993 170.003 36.0513ZM171.308 36.1641C171.308 36.7549 171.421 37.2168 171.646 37.5498C171.875 37.8792 172.199 38.0439 172.618 38.0439C173.152 38.0439 173.542 37.8058 173.789 37.3296V34.8481C173.549 34.3826 173.163 34.1499 172.629 34.1499C172.207 34.1499 171.881 34.3182 171.652 34.6548C171.422 34.9878 171.308 35.4909 171.308 36.1641ZM176.267 36.0405C176.267 35.4712 176.379 34.9591 176.605 34.5044C176.831 34.0461 177.147 33.6951 177.556 33.4517C177.964 33.2046 178.433 33.0811 178.963 33.0811C179.747 33.0811 180.383 33.3335 180.87 33.8384C181.36 34.3433 181.625 35.0129 181.665 35.8472L181.67 36.1533C181.67 36.7262 181.559 37.2383 181.337 37.6895C181.119 38.1406 180.803 38.4897 180.392 38.7368C179.983 38.9839 179.511 39.1074 178.974 39.1074C178.154 39.1074 177.497 38.8353 177.002 38.291C176.512 37.7432 176.267 37.0145 176.267 36.105V36.0405ZM177.572 36.1533C177.572 36.7513 177.695 37.2204 177.942 37.5605C178.189 37.8971 178.533 38.0654 178.974 38.0654C179.414 38.0654 179.756 37.8936 180 37.5498C180.247 37.2061 180.37 36.703 180.37 36.0405C180.37 35.4533 180.243 34.9878 179.989 34.644C179.738 34.3003 179.396 34.1284 178.963 34.1284C178.537 34.1284 178.198 34.2985 177.948 34.6387C177.697 34.9753 177.572 35.4801 177.572 36.1533Z" fill="black"/>
</svg>
