<svg width="133" height="26" viewBox="0 0 133 26" fill="none" xmlns="http://www.w3.org/2000/svg">
<path d="M40 11.9449C40 8.67994 37.2632 6.01226 33.8105 5.93263C32.8421 2.50843 29.5158 0 25.6 0C23.3684 0 21.3053 0.836151 19.7895 2.15009C18.2316 1.1945 16.379 0.637074 14.4 0.637074C11.8737 0.637074 9.55789 1.55285 7.78947 3.02605C7.32632 2.9066 6.86315 2.86677 6.35788 2.86677C2.82104 2.86677 0 5.57427 0 8.87902C0 10.6707 0.842105 12.2634 2.10526 13.3384C1.34737 14.3338 0.926321 15.5283 0.926321 16.8423C0.926321 20.1868 3.78947 22.8545 7.28421 22.8545C8.37894 22.8545 9.38948 22.6156 10.2737 22.1378C11.7895 24.4472 14.4842 26 17.5579 26C20.3368 26 22.7789 24.7657 24.3368 22.8147C25.4737 24.3277 27.3684 25.3231 29.5158 25.3231C33.0526 25.3231 35.8737 22.6156 35.8737 19.3109C35.8737 18.7136 35.7895 18.1562 35.621 17.5988C38.1474 16.8821 40 14.6126 40 11.9449ZM12.7579 14.8515C11.4526 14.8515 10.4421 13.856 10.4421 12.6616C10.4421 11.4273 11.4947 10.4717 12.7579 10.4717C14.0632 10.4717 15.0737 11.4671 15.0737 12.6616C15.0737 13.856 14.021 14.8515 12.7579 14.8515ZM20 14.8515C18.6947 14.8515 17.6842 13.856 17.6842 12.6616C17.6842 11.4273 18.7368 10.4717 20 10.4717C21.3053 10.4717 22.3158 11.4671 22.3158 12.6616C22.3158 13.856 21.3053 14.8515 20 14.8515ZM27.2421 14.8515C25.9368 14.8515 24.9263 13.856 24.9263 12.6616C24.9263 11.4273 25.979 10.4717 27.2421 10.4717C28.5474 10.4717 29.5579 11.4671 29.5579 12.6616C29.6 13.856 28.5474 14.8515 27.2421 14.8515Z" fill="black"/>
<path d="M46.7617 14.958C46.7617 12.4482 47.3037 10.4707 48.3877 9.02539C49.4717 7.58008 50.9854 6.85742 52.9287 6.85742C54.3447 6.85742 55.5361 7.41406 56.5029 8.52734V0.5H61.4541V23H57.0156L56.7666 21.3008C55.751 22.6289 54.4619 23.293 52.8994 23.293C51.0146 23.293 49.5205 22.5703 48.417 21.125C47.3135 19.6797 46.7617 17.624 46.7617 14.958ZM51.6982 15.2656C51.6982 18.0781 52.5186 19.4844 54.1592 19.4844C55.2529 19.4844 56.0342 19.0254 56.5029 18.1074V12.0723C56.0537 11.1348 55.2822 10.666 54.1885 10.666C52.665 10.666 51.8398 11.8965 51.7129 14.3574L51.6982 15.2656Z" fill="black"/>
<path d="M77.9482 16.4961L79.5449 7.15039H84.2764L80.541 23H76.3662L73.7441 13.5957L71.1074 23H66.9326L63.1973 7.15039H67.9287L69.4961 16.7158L72.0156 7.15039H75.458L77.9482 16.4961Z" fill="black"/>
<path d="M92.4209 17.0967L91.0293 18.4883V23H86.0928V0.485352H91.0293V12.4385L91.5273 11.7793L95.248 7.15039H101.166L95.6143 13.6689L101.532 23H95.8779L92.4209 17.0967Z" fill="black"/>
<path d="M106.996 7.15039L107.157 9.01074C108.251 7.5752 109.76 6.85742 111.684 6.85742C113.334 6.85742 114.564 7.35059 115.375 8.33691C116.195 9.32324 116.62 10.8076 116.649 12.79V23H111.698V12.9951C111.698 12.1943 111.537 11.6084 111.215 11.2373C110.893 10.8564 110.307 10.666 109.457 10.666C108.49 10.666 107.772 11.0469 107.304 11.8086V23H102.367V7.15039H106.996Z" fill="black"/>
<path d="M127.694 18.5469C127.694 18.127 127.475 17.79 127.035 17.5361C126.596 17.2822 125.761 17.0186 124.53 16.7451C123.3 16.4717 122.284 16.1152 121.483 15.6758C120.683 15.2266 120.072 14.6846 119.652 14.0498C119.232 13.415 119.022 12.6875 119.022 11.8672C119.022 10.4121 119.623 9.21582 120.824 8.27832C122.025 7.33105 123.598 6.85742 125.541 6.85742C127.631 6.85742 129.311 7.33105 130.58 8.27832C131.85 9.22559 132.484 10.4707 132.484 12.0137H127.533C127.533 10.7441 126.864 10.1094 125.526 10.1094C125.009 10.1094 124.574 10.2559 124.223 10.5488C123.871 10.832 123.695 11.1885 123.695 11.6182C123.695 12.0576 123.91 12.4141 124.34 12.6875C124.77 12.9609 125.453 13.1855 126.391 13.3613C127.338 13.5371 128.168 13.7471 128.881 13.9912C131.264 14.8115 132.455 16.2812 132.455 18.4004C132.455 19.8457 131.811 21.0225 130.521 21.9307C129.242 22.8389 127.582 23.293 125.541 23.293C124.184 23.293 122.973 23.0488 121.908 22.5605C120.844 22.0723 120.014 21.4082 119.418 20.5684C118.822 19.7285 118.524 18.8447 118.524 17.917H123.139C123.158 18.6494 123.402 19.1865 123.871 19.5283C124.34 19.8604 124.94 20.0264 125.673 20.0264C126.347 20.0264 126.85 19.8896 127.182 19.6162C127.523 19.3428 127.694 18.9863 127.694 18.5469Z" fill="black"/>
</svg>
